<svg id="LOGO_BLUE_BG" xmlns="http://www.w3.org/2000/svg" viewBox="0 0 281.81 281.81"><defs><style>.cls-1{fill:#ccecfe;}.cls-2,.cls-4{fill:#237bb4;}.cls-3{fill:#fff;}.cls-4{fill-rule:evenodd;}</style></defs><rect id="BG" class="cls-1" width="281.81" height="281.81"/><g id="LETTERS"><path id="S" class="cls-2" d="M125.94,157.61c0,15-1,35.28-49.78,35.28s-49.79-20.32-49.79-35.28V121.26h41.1v44.1c0,3.74,4,6.68,8.69,6.68s8.35-2.94,8.35-6.68V107.62H26.37V46.15c0-15,1-35.28,49.79-35.28s49.78,20.31,49.78,35.28v27H84.51V38.4c0-3.74-3.68-6.68-8.35-6.68S67.8,34.66,67.8,38.4V86.78h58.14Z"/><path id="R" class="cls-2" d="M237.67,107.65q-4.69-5.81-18.3-9.26,15-1.45,20.15-8.71t5.12-28.36q0-23.1-7.24-33.66T218.66,14.55Q207.17,12,174.72,12H142.26V192.72h45.85v-81.5q9.48,0,11.71,3.47t2.23,18V172.5c8.82-7.65,21.11-12.39,34.69-12.39a53.21,53.21,0,0,1,7.9.57V145.05q0-21.89-1.15-26.74T237.67,107.65ZM202.05,66.79c0,8-1,12.67-3.1,14.13s-5.68,2.17-10.84,2.17V42.9q7.95,0,10.95,2.68t3,11.28Z"/></g><g id="PENGUIN"><g id="Penguin-2" data-name="Penguin"><path id="White" class="cls-3" d="M248.45,181.68a18.4,18.4,0,0,1-2.47,3.45,9.62,9.62,0,0,1-2.89,2.28c-.14.08-.16.4-.18.62-.13,1.23.33,3,1.69,7.67.09.3,1.49,6.59,1.67,8.91.14,1.84.59,12.89-.12,18.23-.8,6-4.13,11-9.6,19.66-8,12.61-19.17,22.33-26.48,25.76s-53.85,3.66-53.85,3.66H88.39s-15.1-3.48-27.34-12.18A108.22,108.22,0,0,1,44.52,245.3c-18.08-19.46-17.73-27.11-16.34-31.63S210,215.06,210,215.06l.87-39.59,29.06-.82,4.76.94,2,.32,2.68,1.56A5.92,5.92,0,0,1,248.45,181.68Z"/><path id="Foot" class="cls-2" d="M61.46,259.74a86,86,0,0,1,13.81,4.85A135,135,0,0,1,88.67,272H38.57s-.63-2,.44-2.59c2.64-1.5,7-2.07,12.15-4.67C55.57,262.51,61.46,259.74,61.46,259.74Z"/><path id="BODY" class="cls-2" d="M213,188.66c-1.68,6.67,2.17,15.5,6.36,21.9a30.51,30.51,0,0,0,2.37,3.19s.36,8.56-11.65,22.28c-4,4.6-11.62,10.84-46.45,24s-69.1,9.76-68.71,5.8,11.5,1.71,31.35-7.54c18.13-8.46,22.37-13.35,26.9-18,3.36-3.45,3.68-12.2-5.61-9.88S129.37,239.9,103,244.54c-26.1,4.61-62.6-13.72-69.63-18.64-8.34-5.84-19-16-19-16s9.6,1,13.55,1.16c6.58.19,22.1-2.67,28.58-4.08s42.4-8.89,63-8.89c30.91,0,72,10.07,75.87,8.52.19-.08.38-.15.56-.24-.06-.28-.15-.51-.17-.68-3.22-7.77-.21-20.77,7.91-28,19.45-17.43,34.26-9.12,41.29-2C236.86,174.93,216.38,175.26,213,188.66Z"/><path id="BellyCurve" class="cls-1" d="M244.05,193.81c.13.4.52,1.31.75,2.05,1.13,3.5,3.13,12.73,3.13,16.32,0,12.33-.21,19.88-4.58,28.18-4.69,8.89-23.78,31.62-32.92,31.62h-54s46.33-.64,53.65-4.07,18.16-12.87,26.14-25.47c5.48-8.65,8.37-13.89,9.29-22.36a70.89,70.89,0,0,0,.53-11.85A103.14,103.14,0,0,0,244.05,193.81Z"/><g id="Face"><path id="Eye" class="cls-4" d="M229.66,179.67c-8,4.45,1.19,12.72,5.59,9.12C239.88,185,235.7,176.33,229.66,179.67Z"/><path id="Beak" class="cls-4" d="M247,176c.94,3.63-5.5,9.91-5.5,9.91s25.6-1.33,30.75,4.85C270.55,182.4,259.67,173.43,247,176Z"/></g></g></g></svg>